<svg width="704" height="732" viewBox="0 0 704 732" fill="none" xmlns="http://www.w3.org/2000/svg">
<path d="M685.5 507.5C709.5 605.5 599.5 647 544 641.5C512.13 638.342 390.585 610.902 447.5 523C504.414 435.098 456.345 546.048 570 540.5C641.324 537.018 676.804 471.991 685.5 507.5Z" fill="#9B8DD4"/>
<path d="M676.5 523C671.5 631 534 638.5 502.5 620C474.886 620 441.127 577.5 464.5 536C487.874 494.5 482.5 561.281 580.5 556.5C642 553.5 677.957 491.534 676.5 523Z" fill="#F0EDFB"/>
<g filter="url(#filter0_d_14_178)">
<path d="M523.57 683.237C549.57 661.737 510.57 636.737 510.57 636.737C516.07 574.237 482.57 534.424 482.57 534.424L413.07 591.424C413.07 591.424 398.07 671.925 448.57 707.425C456.501 713 469.545 713.475 474.57 703.425C476.07 700.425 500.07 724.167 510.57 690.667C521.07 657.167 497.57 704.737 523.57 683.237Z" fill="#9B8DD4"/>
</g>
<path d="M471.5 546.5C455.125 525.332 422 586.5 424.5 591.5C427 596.5 413.438 671 454.259 693.356C481 708 452.759 678.099 470.259 675.856C492.883 672.955 487 669.5 493.259 664.855C510.563 652.016 498.614 652.447 498.259 645.456C496 601 492 573 471.5 546.5Z" fill="#F0EDFB"/>
<path d="M471 675.5C479 675.5 477 700 492 693C506.25 686.35 489.063 674.5 489.5 671C490.5 663 494.027 666.458 488.5 660C491.698 653.198 463 675.5 471 675.5Z" fill="#F0EDFB"/>
<path d="M493.5 664.5C497.5 660.5 508.5 677.5 513 675C519.5 671.389 516.873 664.327 514.073 659.727C511.5 655.5 505.073 649.227 497.573 645.227C498.073 637.727 489.5 668.5 493.5 664.5Z" fill="#F0EDFB"/>
<g filter="url(#filter1_d_14_178)">
<path d="M186.5 684.312C160.5 662.812 199.5 637.812 199.5 637.812C194 575.312 227.5 535.5 227.5 535.5L297 592.5C297 592.5 312 673 261.5 708.5C253.569 714.075 240.524 714.55 235.5 704.5C234 701.5 210 725.243 199.5 691.743C189 658.243 212.5 705.813 186.5 684.312Z" fill="#9B8DD4"/>
</g>
<path d="M238 544.101C254.375 522.933 288 588.5 285.5 593.5C283 598.5 292.5 671.5 256.5 693C229.781 708.957 258 677.744 240.5 675.5C217.876 672.6 221.5 669.5 217.5 664.5C204.04 647.674 212.5 652.101 212.5 645.101C212.5 599.327 217.5 570.601 238 544.101Z" fill="#F0EDFB"/>
<path d="M217 664C213 660 201 678 196.5 675.5C189.144 671.414 192.552 664.637 196 660.5C198.5 657.5 205 650 212.5 646C212 638.5 221 668 217 664Z" fill="#F0EDFB"/>
<path d="M236.5 675C234 674.5 232.5 698.5 218 694C205 683 219.5 678.5 219.5 671C219.5 660.507 210.5 666.5 228 661C238.493 661 239 675.5 236.5 675Z" fill="#F0EDFB"/>
<path d="M494.5 508.5C494.5 586.855 407 606.5 354.5 606.5C312 606.5 214.5 593.513 214.5 502.5C214.5 424.145 285.164 327.212 354.776 324C433.803 324 494.5 430.145 494.5 508.5Z" fill="#9B8DD4"/>
<path d="M481.5 506.5C481.5 579.678 403 593.5 355.5 593.5C314 593.5 229 585 229 500C229 426.822 292.5 331 355.5 328C427.021 328 481.5 433.322 481.5 506.5Z" fill="#F0EDFB"/>
<path d="M609.916 446.5C619.916 416 563.536 411.902 531.308 395.245C502.442 380.325 463.17 348.731 463.17 348.731L491 477C491 477 527.416 506 549.416 510.5C558.914 512.443 570.916 510.5 574.916 500C575.923 497.357 600.416 498 600.416 483C600.416 449.5 600.078 476.508 609.916 446.5Z" fill="#9B8DD4"/>
<path d="M597 442C599.448 426.5 512.5 420.5 473.862 371.484C458.417 351.891 411 393.5 411 393.5C411 393.5 544.5 503.722 555.5 497C566.5 490.278 548.5 483 555.5 476.5C565.561 467.158 572.274 496.075 585 482.5C597.727 468.925 569.5 461 569.5 452.5C569.5 440.458 594.553 457.5 597 442Z" fill="#F0EDFB"/>
<path d="M461 370.5C461 370.5 448.316 374.607 440 376.5C431.684 378.393 420 381.538 420 381.538L464.5 430.538C464.5 430.538 458.258 422.452 465.5 419.038C472.742 415.625 477.5 426.038 477.5 426.038L461 370.5Z" fill="#F0EDFB"/>
<path d="M99 446.5C89 416 145.38 411.902 177.608 395.245C206.475 380.325 245.747 348.731 245.747 348.731L218.5 478C218.5 478 181.5 506 159.5 510.5C150.002 512.443 138 510.5 134 500C132.993 497.357 108.5 498 108.5 483C108.5 449.5 108.839 476.507 99 446.5Z" fill="#9B8DD4"/>
<path d="M112.5 442.5C110.053 427 198 419 239.5 371.5C255.915 352.712 291 399.5 291 399.5C291 399.5 164 502.722 153 496C142 489.278 162.5 483.5 155.5 477C145.439 467.658 136.727 495.075 124 481.5C111.273 467.925 139 461.5 139 453C139 440.958 114.947 458 112.5 442.5Z" fill="#F0EDFB"/>
<path d="M248 372.5C248 372.5 260.684 376.107 269 378C277.316 379.893 289 382 289 382L244.5 431C244.5 431 250.742 422.913 243.5 419.5C236.258 416.087 231.5 426.5 231.5 426.5L248 372.5Z" fill="#F0EDFB"/>
<path d="M78.4606 29.3601C41.891 70.1267 74.3861 124.167 108.039 145.867C144.576 169.427 167.005 185.96 182.464 149.985C236.901 98.5899 201.055 119.345 170.856 69.7953C152.356 39.4411 111.364 -1.06141 78.4606 29.3601Z" fill="#9B8DD4"/>
<path d="M13.5308 161.103C2.2952 227.523 70.288 246.474 107.426 248.529C156.41 251.239 176.849 239.276 176.179 218.333C211.142 170.133 177.502 190.764 122.501 157.453C87.9252 141.65 39.7415 102.845 13.5308 161.103Z" fill="#9B8DD4"/>
<path d="M38.5297 313.272C51.905 357.226 96.7435 355.218 127.257 344.893C164.128 332.416 183.142 305.035 164.339 280.901C159.734 222.582 153.936 252.438 104.401 255.636C75.2885 262.406 37.9523 258.511 38.5297 313.272Z" fill="#9B8DD4"/>
<path d="M86.6213 40.624C58.2325 71.7809 96.2751 118.613 119.071 135.514C149.885 158.362 165.531 170.48 176.785 142.239C213.827 125.017 186.735 122.261 159.976 81.0763C142.182 58.1627 116.552 16.3461 86.6213 40.624Z" fill="#F0EDFB"/>
<path d="M27.6528 164.473C13.965 210.331 67.7167 226.922 95.2948 231.067C132.574 236.67 148.889 240.841 146.781 210.283C172.39 177.195 147.453 191.118 105.906 167.231C80.2012 155.334 44.8839 127.192 27.6528 164.473Z" fill="#F0EDFB"/>
<path d="M53.0495 310.917C59.5139 340.605 98.3089 338.67 122.53 330.474C151.798 320.571 167.992 304.182 153.067 285.025C149.411 238.732 144.418 269.357 105.097 271.896C75.3062 272.343 48.4087 284.472 53.0495 310.917Z" fill="#F0EDFB"/>
<path d="M629.137 39.7791C663.952 80.6277 628.5 130.5 593.5 149.438C555.5 170 532.069 184.598 518.29 149.438C466 97.5 501.087 119.207 534 73.5C554.163 45.5 597.5 9.00001 629.137 39.7791Z" fill="#9B8DD4"/>
<path d="M693 167.5C701 231.5 631.53 246 594 246C544.5 246 524.5 233.5 526.223 213.543C493.4 165.683 526.269 187.155 583.364 158.26C619 145 669.5 110.5 693 167.5Z" fill="#9B8DD4"/>
<path d="M665.5 312C649.822 353.254 604.735 348.968 574.5 337.5C537.967 323.642 520.175 296.499 540.331 274.453C547.89 219.023 552.239 247.831 602 253.5C631 261.5 668.822 259.754 665.5 312Z" fill="#9B8DD4"/>
<path d="M620.449 50.2572C647.5 81.5 606.818 124.198 583 139.129C550.803 159.312 534.428 170.055 524.5 142.5C488.031 124.103 515.472 122.903 544.5 85.0001C563.579 64.0658 591.5 25.5 620.449 50.2572Z" fill="#F0EDFB"/>
<path d="M678.5 169.5C690 214 635 227 607 229.5C569.151 232.879 552.5 236 556.153 206.94C532 174 556.435 188.608 599.5 168C626 158 663 133 678.5 169.5Z" fill="#F0EDFB"/>
<path d="M651 309C643 337 604 333.103 580 324C551 313 535.5 296.5 551.5 279C557.5 235 561 264.5 600.5 269C630.5 271 657 284 651 309Z" fill="#F0EDFB"/>
<path d="M564.475 227.032C571.943 343.458 463.554 388.371 348 386.5C224.5 384.5 145 342.441 145 239.5C145 136.559 229.558 40 355.5 40C470 40 558.091 127.5 564.475 227.032Z" fill="#9B8DD4"/>
<path d="M549.5 227C556.5 333.5 464.852 371.5 355.5 371.5C239.5 371.5 159 332.665 159 238.5C159 144.335 240.5 55 354.5 55C462 55 545 135 549.5 227Z" fill="#F0EDFB"/>
<path d="M276.5 231.5C289.5 231.5 283 266.5 251.5 267.5C223 268.405 209.5 234 225 234C236 234 230.983 253.012 252.5 252.5C273.5 252 263.5 231.5 276.5 231.5Z" fill="#9B8DD4"/>
<path d="M434.851 230.247C421.856 229.864 427.323 265.04 458.78 266.967C487.241 268.71 501.748 234.718 486.255 234.262C475.259 233.938 479.715 253.089 458.222 251.944C437.246 250.826 447.845 230.63 434.851 230.247Z" fill="#9B8DD4"/>
<path d="M401.5 282C410.5 288.5 392.5 305 354 305C317 305 301.203 287.631 309 282C320.077 274 320 290 354 290C394 290 390.5 274.056 401.5 282Z" fill="#9B8DD4"/>
<path d="M299.5 368C299.5 368 331.86 370.5 357.5 370.5C382.5 370.5 412 367.5 412 367.5C412 367.5 402.118 369 403 376.5C403.882 384 408.5 383 408.5 383L353.5 389.5L294.5 383C294.5 383 305.5 385.5 306 376.5C306.5 367.5 299.5 368 299.5 368Z" fill="#F0EDFB"/>
<defs>
<filter id="filter0_d_14_178" x="406.987" y="534.424" width="129.521" height="184.935" filterUnits="userSpaceOnUse" color-interpolation-filters="sRGB">
<feFlood flood-opacity="0" result="BackgroundImageFix"/>
<feColorMatrix in="SourceAlpha" type="matrix" values="0 0 0 0 0 0 0 0 0 0 0 0 0 0 0 0 0 0 127 0" result="hardAlpha"/>
<feOffset dy="4"/>
<feGaussianBlur stdDeviation="2"/>
<feComposite in2="hardAlpha" operator="out"/>
<feColorMatrix type="matrix" values="0 0 0 0 0 0 0 0 0 0 0 0 0 0 0 0 0 0 0.25 0"/>
<feBlend mode="normal" in2="BackgroundImageFix" result="effect1_dropShadow_14_178"/>
<feBlend mode="normal" in="SourceGraphic" in2="effect1_dropShadow_14_178" result="shape"/>
</filter>
<filter id="filter1_d_14_178" x="173.562" y="535.5" width="129.521" height="184.935" filterUnits="userSpaceOnUse" color-interpolation-filters="sRGB">
<feFlood flood-opacity="0" result="BackgroundImageFix"/>
<feColorMatrix in="SourceAlpha" type="matrix" values="0 0 0 0 0 0 0 0 0 0 0 0 0 0 0 0 0 0 127 0" result="hardAlpha"/>
<feOffset dy="4"/>
<feGaussianBlur stdDeviation="2"/>
<feComposite in2="hardAlpha" operator="out"/>
<feColorMatrix type="matrix" values="0 0 0 0 0 0 0 0 0 0 0 0 0 0 0 0 0 0 0.25 0"/>
<feBlend mode="normal" in2="BackgroundImageFix" result="effect1_dropShadow_14_178"/>
<feBlend mode="normal" in="SourceGraphic" in2="effect1_dropShadow_14_178" result="shape"/>
</filter>
</defs>
</svg>
